<svg xmlns="http://www.w3.org/2000/svg" viewBox="0 0 512 512"><path fill="#1f7099" d="M241 341.922h30V512h-30z"/><path fill="#e6e6f2" d="M412.99 95.366C408.465 41.947 363.68 0 309.09 0 289.701 0 271.551 5.294 256 14.513l-20 108.732 20 123.245h147.894c41.887 0 75.843-33.956 75.843-75.843-.001-38.807-29.152-70.784-66.747-75.281z"/><path fill="#fff5f5" d="M236.591 29.333c-12.946-6.631-27.616-10.372-43.161-10.372-46 0-84.343 32.764-92.979 76.227-38.291 3.839-68.187 36.156-68.187 75.459 0 41.887 33.956 75.843 75.843 75.843H256V14.513a104.72 104.72 0 0 0-19.409 14.82z"/><path fill="#2995cc" d="m256 136.057-20 85.216 20 135.649c60.893 0 110.433-49.54 110.433-110.433S316.893 136.057 256 136.057z"/><path fill="#2ec7e6" d="M145.567 246.489c0 60.893 49.54 110.433 110.433 110.433V136.057c-60.893 0-110.433 49.54-110.433 110.432z"/><path fill="#e6e6f2" d="M256 326.922c33.748 0 62.689-20.902 74.607-50.433l-94.607-20z"/><path fill="#fff5f5" d="M181.393 276.489c11.918 29.53 40.859 50.433 74.607 50.433v-70.433z"/><path fill="#d7cfe6" d="m256 166.057-20 55.216 20 55.216h74.607a79.977 79.977 0 0 0 5.826-30c0-44.35-36.082-80.432-80.433-80.432z"/><path fill="#e6e6f2" d="M256 166.057c-44.351 0-80.433 36.082-80.433 80.433a79.977 79.977 0 0 0 5.826 30H256z"/></svg>